<?xml version="1.0" encoding="utf-8"?>
<!-- Generator: Adobe Illustrator 21.0.0, SVG Export Plug-In . SVG Version: 6.00 Build 0)  -->
<svg version="1.1" id="Layer_1" xmlns="http://www.w3.org/2000/svg" xmlns:xlink="http://www.w3.org/1999/xlink" x="0px" y="0px"
	 viewBox="0 0 300 55" style="enable-background:new 0 0 300 55;" xml:space="preserve">
<style type="text/css">
	.st0{fill:#504F51;}
	.st1{fill:url(#SVGID_1_);}
	.st2{fill:url(#SVGID_2_);}
	.st3{fill:url(#SVGID_3_);}
</style>
<g>
	<g>
		<g>
			<polygon class="st0" points="65.4,52.5 64.6,52.5 64.6,2.5 65.4,2.5 			"/>
		</g>
		<g>
			<g>
				<g>
					
						<linearGradient id="SVGID_1_" gradientUnits="userSpaceOnUse" x1="34.6393" y1="32.6982" x2="55.9288" y2="44.9135" gradientTransform="matrix(1 0 0 -1 0 56)">
						<stop  offset="0" style="stop-color:#CD190F"/>
						<stop  offset="1" style="stop-color:#831216"/>
					</linearGradient>
					<path class="st1" d="M27.3,2.5C16.3,2.5,7,9.6,3.7,19.4C5.2,18.8,17.4,9.2,30,16.7c19.5,11.1,8.3,31.2,7.4,33.7
						c8.8-3.9,14.9-12.7,14.9-22.9C52.3,13.7,41.1,2.5,27.3,2.5z"/>
					
						<linearGradient id="SVGID_2_" gradientUnits="userSpaceOnUse" x1="4.8779" y1="8.6181" x2="17.9195" y2="20.1902" gradientTransform="matrix(1 0 0 -1 0 56)">
						<stop  offset="0" style="stop-color:#006C33"/>
						<stop  offset="0.7" style="stop-color:#089149"/>
					</linearGradient>
					<path class="st2" d="M27.3,52.5c11,0,20.3-7.1,23.6-16.9c-1.5,0.7-19.6,12.5-32.6,1.5c-5.8-4.9-6-13.1-4.8-21.1
						c1.1-6.7,2.7-8.8,3.6-11.3C8.4,8.5,2.3,17.3,2.3,27.5C2.3,41.3,13.5,52.5,27.3,52.5z"/>
					
						<linearGradient id="SVGID_3_" gradientUnits="userSpaceOnUse" x1="7.3606" y1="14.4433" x2="49.7304" y2="42.6082" gradientTransform="matrix(1 0 0 -1 0 56)">
						<stop  offset="0" style="stop-color:#007E38"/>
						<stop  offset="3.625908e-02" style="stop-color:#318B35"/>
						<stop  offset="7.420406e-02" style="stop-color:#5C9632"/>
						<stop  offset="0.1151" style="stop-color:#83A030"/>
						<stop  offset="0.1586" style="stop-color:#A3A92E"/>
						<stop  offset="0.2052" style="stop-color:#BDB02D"/>
						<stop  offset="0.2562" style="stop-color:#D2B52C"/>
						<stop  offset="0.3139" style="stop-color:#E0B92B"/>
						<stop  offset="0.3838" style="stop-color:#E8BB2A"/>
						<stop  offset="0.5" style="stop-color:#EBBC2A"/>
						<stop  offset="0.5647" style="stop-color:#EAB729"/>
						<stop  offset="0.6456" style="stop-color:#E7A727"/>
						<stop  offset="0.7352" style="stop-color:#E28E22"/>
						<stop  offset="0.8311" style="stop-color:#DC6A1C"/>
						<stop  offset="0.9308" style="stop-color:#D43D15"/>
						<stop  offset="1" style="stop-color:#CD190F"/>
					</linearGradient>
					<path class="st3" d="M15.2,19.5c-4.8,6-4.5,13.7-8.5,14.3c-1.6,0.2-4.1-1.1-4.4-5.3c0.4,11,7.9,20.2,18,23.1
						c-2.4-3.3-3.3-4.9-3.3-9.3c0-11,8.8-19,19.4-20c8.3-0.8,12.2,1.1,15.8,6.1c0-0.3,0-0.6,0-0.9c0-7-2.8-13.2-7.4-17.8
						C43.3,8.2,26.9,5,15.2,19.5z"/>
				</g>
			</g>
		</g>
	</g>
	<g>
		<g>
			<g>
				<g>
					<g>
						<path class="st0" d="M92.1,44.7c-2.7,0-5.1-0.7-7-2.1l0,0l-1.2-0.9c-2.4-2-3.1-5.3-3.3-6.6l-0.1-0.7l5.7-1.2l0.1,0.7
							c0.2,0.8,1.2,4.9,5.8,4.9c2.5,0,3.9-1.2,4.6-2c0.5-0.8,0.9-1.8,0.9-2.5c0-0.9-0.2-1.6-0.5-1.8l-0.1,0
							c-0.5-0.6-3.2-2.5-4.3-3.3c-0.6-0.3-1.4-0.9-1.9-1.4c-3.8-2.5-6.3-4.3-7.3-5.7c-1-1.6-1.6-3.4-1.6-4.8c0-2.2,1-4.5,2.6-6.3
							c2.4-2.5,4.9-3,8.1-3c2.2,0,4.5,0.8,6.5,2.3c1.9,1.5,3.4,4.1,3.9,6.9l0.1,0.7l-5.7,1.2l-0.1-0.7c-0.5-2.4-2.6-4.5-4.7-4.5
							c-2.4,0-3.1,0.3-3.8,1.1c-0.3,0.3-1,1.2-1,2.2c0,0.3,0.4,1.1,0.6,1.5c1.5,1.3,3,2.4,4.5,3.4c0.7,0.5,1.4,1,2.1,1.5
							c2.5,1.8,5.4,3.8,6.4,5.2c1.3,1.5,2,3.7,1.9,6c0,2-0.8,4.3-2.2,6C99.4,42.5,96.4,44.7,92.1,44.7z"/>
					</g>
					<g>
						<path class="st0" d="M133.5,44.6h-5.1l-15.3-24.2v24.2h-5.8V8.3h5.1l15.2,23.9V8.3h6L133.5,44.6L133.5,44.6z"/>
					</g>
					<g>
						<path class="st0" d="M148.8,44.7c-2.7,0-5.1-0.7-7-2.1l0,0l-1.2-0.9c-2.4-2-3.1-5.3-3.3-6.6l-0.1-0.7l5.7-1.2L143,34
							c0.2,0.8,1.2,4.9,5.8,4.9c2.5,0,3.9-1.2,4.6-2c0.5-0.8,0.9-1.8,0.9-2.5c0-0.9-0.2-1.6-0.5-1.8l-0.1-0.1
							c-0.5-0.6-3.2-2.5-4.3-3.3c-0.6-0.3-1.4-0.9-1.9-1.4c-3.8-2.5-6.3-4.3-7.3-5.7c-1-1.6-1.6-3.4-1.6-4.8c0-2.2,1-4.5,2.6-6.3
							c2.4-2.4,4.8-2.9,8.1-2.9c2.2,0,4.5,0.8,6.5,2.3c1.9,1.5,3.4,4.1,3.9,6.9l0.1,0.7l-5.7,1.2l-0.1-0.7c-0.5-2.4-2.6-4.5-4.7-4.5
							c-2.4,0-3.1,0.3-3.8,1.1c-0.3,0.3-1,1.2-1,2.2c0,0.3,0.4,1.1,0.6,1.5c1.5,1.3,3,2.4,4.5,3.4c0.7,0.5,1.4,1,2.1,1.5
							c2.5,1.8,5.4,3.8,6.4,5.2c1.3,1.5,2,3.7,1.9,6c0,2-0.8,4.3-2.2,6C156.1,42.5,153.1,44.7,148.8,44.7z"/>
					</g>
				</g>
			</g>
			<g>
				<g>
					<g>
						<path class="st0" d="M173.2,13.2c0-1.6-0.8-2.6-2.4-2.6c-1.6,0-2.5,1-2.5,2.4c0,3.9,6.4,1.8,6.4,6.4c0,2.5-1.6,3.8-4,3.8
							c-2.5,0-3.8-1.3-3.8-3.9v-0.4h1.2v0.5c0,1.7,0.9,2.8,2.6,2.8c1.7,0,2.8-0.8,2.8-2.7c0-3.9-6.4-1.7-6.4-6.4
							c0-2.1,1.3-3.5,3.6-3.5c2.4,0,3.6,1.3,3.6,3.6C174.3,13.2,173.2,13.2,173.2,13.2z"/>
						<path class="st0" d="M176.3,9.8h6.5v1h-5.3v4.8h5v1h-5V22h5.5v1h-6.7V9.8z"/>
						<path class="st0" d="M184.4,9.8h3.9c2.2,0,3.4,1.3,3.4,3.3c0,1.6-0.6,3-2.4,3.3l0,0c1.6,0.1,2.2,1.1,2.2,3.1v1.4
							c0,0.7,0.1,1.4,0.6,1.9h-1.4c-0.3-0.5-0.3-1.1-0.3-1.8v-1.1c-0.1-2.3-0.5-3.1-2.6-3.1h-2.2v6h-1.2V9.8z M185.6,16h2
							c1.9,0,2.9-0.8,2.9-2.6c0-1.6-0.7-2.6-2.8-2.6h-2.2V16H185.6z"/>
						<path class="st0" d="M192.7,9.8h1.3l2.9,11.9l0,0l2.9-11.9h1.3L197.6,23h-1.5L192.7,9.8z"/>
						<path class="st0" d="M202.2,9.8h1.2V23h-1.2V9.8z"/>
						<path class="st0" d="M209.4,23.2c-2.6-0.1-4-2.2-4-6.8c0-4.7,1.5-6.8,4.2-6.8s3.8,1.9,3.8,4h-1.2c0-1.8-0.9-3.1-2.6-3.1
							c-1.9,0-3,1.5-3,5.8s1.1,5.8,3,5.8c1.7,0,2.6-1.4,2.7-3.7h1.2c-0.1,2.8-1.4,4.4-3.4,4.6l-0.6,0.8l0,0c0.2-0.1,0.4-0.1,0.6-0.1
							c0.8,0,1.4,0.6,1.4,1.2c0,1-1.1,1.6-2,1.6c-0.6,0-1.3-0.2-1.6-0.4l0.2-0.6c0.3,0.1,0.7,0.3,1.1,0.3c0.9,0,1.3-0.4,1.3-0.8
							c0-0.5-0.5-0.7-1-0.7c-0.3,0-0.6,0.1-0.8,0.2l-0.2-0.3L209.4,23.2z"/>
						<path class="st0" d="M219.2,9.6c2.7,0,4.2,2.1,4.2,6.8s-1.5,6.8-4.2,6.8s-4.2-2.1-4.2-6.8S216.5,9.6,219.2,9.6z M219.2,22.2
							c1.9,0,3-1.5,3-5.8s-1.1-5.8-3-5.8s-3,1.5-3,5.8C216.1,20.6,217.3,22.2,219.2,22.2z"/>
						<path class="st0" d="M229.7,9.8h1.6l5,11.5l0,0V9.8h1.2V23H236l-5-11.5l0,0V23h-1.2V9.8H229.7z"/>
						<path class="st0" d="M242.4,9.8h1.5l3.9,13.1h-1.3l-1.1-3.8h-4.6l-1.1,3.8h-1.3L242.4,9.8z M245.2,18.1l-2-7.4l0,0l-2,7.4
							H245.2z"/>
						<path class="st0" d="M256.8,18.5c-0.2,3-1.5,4.7-3.9,4.7c-2.7,0-4.2-2.1-4.2-6.8s1.5-6.8,4.2-6.8s3.8,1.9,3.8,4h-1.2
							c0-1.8-0.9-3.1-2.6-3.1c-1.9,0-3,1.5-3,5.8s1.1,5.8,3,5.8c1.7,0,2.6-1.4,2.7-3.7L256.8,18.5L256.8,18.5z"/>
						<path class="st0" d="M258.4,9.8h1.2V23h-1.2V9.8z"/>
						<path class="st0" d="M265.8,9.6c2.7,0,4.2,2.1,4.2,6.8s-1.5,6.8-4.2,6.8s-4.2-2.1-4.2-6.8S263.1,9.6,265.8,9.6z M265.8,22.2
							c1.9,0,3-1.5,3-5.8s-1.1-5.8-3-5.8s-3,1.5-3,5.8C262.8,20.6,264,22.2,265.8,22.2z"/>
						<path class="st0" d="M272,9.8h1.6l5,11.5l0,0V9.8h1.2V23h-1.6l-5-11.5l0,0V23H272V9.8z"/>
						<path class="st0" d="M284.7,9.8h1.5L290,23h-1.3l-1.1-3.8H283l-1.1,3.8h-1.3L284.7,9.8z M287.5,18.1l-2-7.4l0,0l-2,7.4H287.5z
							"/>
						<path class="st0" d="M291.1,9.8h1.2V22h5.4v1h-6.6V9.8z"/>
						<path class="st0" d="M167.4,31.5h3.2c3.8,0,4.8,2.3,4.8,6.6s-0.9,6.6-4.8,6.6h-3.2V31.5z M168.6,43.6h1.9
							c2.6,0,3.7-1.3,3.7-5.6s-1.1-5.6-3.7-5.6h-1.9V43.6z"/>
						<path class="st0" d="M177.3,31.5h6.5v1h-5.3v4.8h5v1h-5v5.4h5.5v1h-6.7V31.5z"/>
						<path class="st0" d="M195.7,34.8c0-1.6-0.8-2.6-2.4-2.6c-1.6,0-2.5,1-2.5,2.4c0,3.9,6.4,1.8,6.4,6.4c0,2.5-1.6,3.8-4,3.8
							c-2.5,0-3.8-1.3-3.8-3.9v-0.4h1.2V41c0,1.7,0.9,2.8,2.6,2.8c1.7,0,2.8-0.8,2.8-2.7c0-3.9-6.4-1.7-6.4-6.4
							c0-2.1,1.3-3.5,3.6-3.5c2.4,0,3.6,1.3,3.6,3.6C196.8,34.8,195.7,34.8,195.7,34.8z"/>
						<path class="st0" d="M201.6,31.5h1.5l3.9,13.1h-1.3l-1.1-3.8H200l-1.1,3.8h-1.3L201.6,31.5z M204.3,39.8l-2-7.4l0,0l-2,7.4
							H204.3z"/>
						<path class="st0" d="M207.9,31.5h1.2v9.4c0,2,0.8,2.9,2.6,2.9c1.7,0,2.6-1,2.6-2.9v-9.4h1.2V41c0,2.8-1.3,3.9-3.8,3.9
							s-3.8-1.1-3.8-3.9V31.5z M213.5,28.2l-1.8,2.6h-0.9l1.4-2.6H213.5z"/>
						<path class="st0" d="M217.2,31.5h3.2c3.8,0,4.8,2.3,4.8,6.6s-0.9,6.6-4.8,6.6h-3.2V31.5z M218.4,43.6h1.9
							c2.6,0,3.7-1.3,3.7-5.6s-1.1-5.6-3.7-5.6h-1.9V43.6z"/>
						<path class="st0" d="M227.1,31.5h6.5v1h-5.3v4.8h5v1h-5v5.4h5.5v1h-6.7V31.5z"/>
					</g>
				</g>
			</g>
		</g>
	</g>
</g>
</svg>
