<?xml version="1.0" encoding="utf-8"?>
<!-- Generator: Adobe Illustrator 21.0.0, SVG Export Plug-In . SVG Version: 6.00 Build 0)  -->
<svg version="1.1" id="Layer_1" xmlns="http://www.w3.org/2000/svg" xmlns:xlink="http://www.w3.org/1999/xlink" x="0px" y="0px"
	 viewBox="0 0 91 30" style="enable-background:new 0 0 91 30;" xml:space="preserve">
<style type="text/css">
	.st0{fill:#58595B;}
	.st1{fill:url(#SVGID_1_);}
</style>
<g>
	<g>
		<g>
			<g>
				<path class="st0" d="M41.2,20.8c0.8,0,1.5-0.2,2-0.6c0.5-0.4,0.8-1,0.8-1.9c0-0.7-0.2-1.2-0.5-1.6c-0.3-0.4-0.7-0.7-1.2-1
					c-0.5-0.3-1-0.5-1.6-0.7c-0.6-0.2-1.1-0.4-1.6-0.7c-0.5-0.3-0.9-0.7-1.2-1.2c-0.3-0.5-0.5-1.1-0.5-1.9c0-0.7,0.1-1.3,0.4-1.8
					c0.3-0.5,0.6-0.9,1-1.1c0.4-0.3,0.9-0.5,1.4-0.6c0.5-0.1,1-0.2,1.5-0.2c0.4,0,0.7,0,1.1,0.1c0.4,0.1,0.8,0.1,1.1,0.2
					C44.5,8,44.7,8.2,45,8.3c0.2,0.2,0.3,0.4,0.3,0.6c0,0.2-0.1,0.4-0.2,0.6c-0.1,0.2-0.3,0.3-0.5,0.3c-0.1,0-0.2,0-0.4-0.1
					c-0.1-0.1-0.3-0.2-0.5-0.3c-0.2-0.1-0.5-0.2-0.8-0.3c-0.3-0.1-0.7-0.1-1.1-0.1c-0.4,0-0.7,0-1,0.1c-0.3,0.1-0.6,0.2-0.9,0.3
					c-0.2,0.2-0.4,0.4-0.6,0.6c-0.1,0.3-0.2,0.6-0.2,1c0,0.6,0.2,1,0.5,1.3c0.3,0.3,0.7,0.6,1.2,0.8c0.5,0.2,1,0.4,1.6,0.6
					c0.6,0.2,1.1,0.5,1.6,0.8c0.5,0.3,0.9,0.8,1.2,1.3c0.3,0.5,0.5,1.3,0.5,2.2c0,0.7-0.1,1.3-0.3,1.9c-0.2,0.5-0.5,1-0.9,1.3
					c-0.4,0.3-0.8,0.6-1.4,0.8c-0.5,0.2-1.1,0.2-1.8,0.2c-0.6,0-1.2-0.1-1.7-0.2c-0.5-0.2-1-0.3-1.3-0.6c-0.4-0.2-0.6-0.5-0.8-0.7
					c-0.2-0.3-0.3-0.5-0.3-0.7c0-0.2,0.1-0.4,0.2-0.6c0.2-0.2,0.3-0.3,0.5-0.3c0.1,0,0.3,0.1,0.4,0.2c0.2,0.2,0.4,0.4,0.6,0.6
					c0.2,0.2,0.6,0.4,0.9,0.6C40.2,20.8,40.6,20.8,41.2,20.8z"/>
				<path class="st0" d="M47.9,8.2c0-0.1,0.1-0.3,0.2-0.4c0.1-0.1,0.3-0.2,0.5-0.2h3.8c0.6,0,1.1,0.1,1.7,0.2c0.5,0.2,1,0.4,1.3,0.7
					c0.4,0.3,0.7,0.8,0.9,1.3c0.2,0.6,0.3,1.2,0.3,2v0.2c0,0.8-0.1,1.5-0.3,2c-0.2,0.5-0.5,1-0.9,1.3c-0.4,0.3-0.9,0.6-1.4,0.8
					s-1.1,0.2-1.7,0.2h-2.7v5.2c0,0.2-0.1,0.3-0.3,0.4c-0.2,0.1-0.4,0.1-0.6,0.1c-0.2,0-0.4-0.1-0.6-0.1c-0.2-0.1-0.3-0.2-0.3-0.4
					V8.2z M49.5,9.2v5.9h2.7c0.8,0,1.5-0.2,1.9-0.7c0.5-0.5,0.7-1.2,0.7-2.1V12c0-1-0.2-1.7-0.7-2.1c-0.5-0.5-1.1-0.7-1.9-0.7H49.5z
					"/>
				<path class="st0" d="M64.5,16.8c-0.1,0.2-0.2,0.3-0.3,0.4c-0.1,0.1-0.2,0.1-0.3,0.1c-0.1,0-0.2,0-0.3-0.1
					c-0.1-0.1-0.2-0.2-0.3-0.4l-3-5.8v10.6c0,0.2-0.1,0.3-0.3,0.4c-0.2,0.1-0.4,0.1-0.6,0.1c-0.2,0-0.4-0.1-0.6-0.1
					c-0.2-0.1-0.3-0.2-0.3-0.4V8.5c0-0.3,0.1-0.5,0.2-0.6c0.2-0.1,0.4-0.2,0.6-0.2c0.3,0,0.6,0.1,0.8,0.3c0.2,0.2,0.4,0.4,0.6,0.8
					l3.1,6l3.2-6c0.2-0.3,0.4-0.6,0.6-0.8c0.2-0.2,0.5-0.3,0.8-0.3c0.2,0,0.4,0.1,0.6,0.2c0.2,0.1,0.2,0.3,0.2,0.6v13.2
					c0,0.2-0.1,0.3-0.3,0.4c-0.2,0.1-0.4,0.1-0.6,0.1c-0.2,0-0.4-0.1-0.6-0.1c-0.2-0.1-0.3-0.2-0.3-0.4V11.2L64.5,16.8z"/>
				<path class="st0" d="M75.4,20.8c0.8,0,1.5-0.2,2-0.6c0.5-0.4,0.8-1,0.8-1.9c0-0.7-0.2-1.2-0.5-1.6c-0.3-0.4-0.7-0.7-1.2-1
					c-0.5-0.3-1-0.5-1.6-0.7c-0.6-0.2-1.1-0.4-1.6-0.7c-0.5-0.3-0.9-0.7-1.2-1.2c-0.3-0.5-0.5-1.1-0.5-1.9c0-0.7,0.1-1.3,0.4-1.8
					c0.3-0.5,0.6-0.9,1-1.1c0.4-0.3,0.9-0.5,1.4-0.6c0.5-0.1,1-0.2,1.5-0.2c0.4,0,0.7,0,1.1,0.1c0.4,0.1,0.8,0.1,1.1,0.2
					C78.7,8,79,8.2,79.2,8.3c0.2,0.2,0.3,0.4,0.3,0.6c0,0.2-0.1,0.4-0.2,0.6c-0.1,0.2-0.3,0.3-0.5,0.3c-0.1,0-0.2,0-0.4-0.1
					c-0.1-0.1-0.3-0.2-0.5-0.3c-0.2-0.1-0.5-0.2-0.8-0.3c-0.3-0.1-0.7-0.1-1.1-0.1c-0.4,0-0.7,0-1,0.1c-0.3,0.1-0.6,0.2-0.9,0.3
					c-0.2,0.2-0.4,0.4-0.6,0.6c-0.1,0.3-0.2,0.6-0.2,1c0,0.6,0.2,1,0.5,1.3c0.3,0.3,0.7,0.6,1.2,0.8c0.5,0.2,1,0.4,1.6,0.6
					c0.6,0.2,1.1,0.5,1.6,0.8c0.5,0.3,0.9,0.8,1.2,1.3c0.3,0.5,0.5,1.3,0.5,2.2c0,0.7-0.1,1.3-0.3,1.9c-0.2,0.5-0.5,1-0.9,1.3
					c-0.4,0.3-0.8,0.6-1.4,0.8c-0.5,0.2-1.1,0.2-1.8,0.2c-0.6,0-1.2-0.1-1.7-0.2c-0.5-0.2-1-0.3-1.3-0.6c-0.4-0.2-0.6-0.5-0.8-0.7
					c-0.2-0.3-0.3-0.5-0.3-0.7c0-0.2,0.1-0.4,0.2-0.6c0.2-0.2,0.3-0.3,0.5-0.3c0.1,0,0.3,0.1,0.4,0.2c0.2,0.2,0.4,0.4,0.6,0.6
					c0.2,0.2,0.6,0.4,0.9,0.6C74.4,20.8,74.9,20.8,75.4,20.8z"/>
			</g>
			<g>
				<g>
					<path class="st0" d="M82,20.5h0.6c0,0,0.1,0,0.1,0c0,0,0,0.1,0,0.1c0,0,0,0.1,0,0.1c0,0,0,0-0.1,0H82v1h1.2c0,0,0.1,0,0.1,0
						c0,0,0,0.1,0,0.1c0,0,0,0.1,0,0.1c0,0,0,0-0.1,0h-1.4c0,0-0.1,0-0.1,0c0,0,0,0,0-0.1v-2.6c0,0,0-0.1,0-0.1c0,0,0.1,0,0.1,0h1.4
						c0,0,0.1,0,0.1,0c0,0,0,0.1,0,0.1c0,0,0,0.1,0,0.1c0,0,0,0-0.1,0H82V20.5z"/>
					<path class="st0" d="M83.6,19.3C83.6,19.3,83.6,19.2,83.6,19.3c0.1-0.1,0.1-0.1,0.1-0.1h0.7c0.1,0,0.2,0,0.3,0
						c0.1,0,0.2,0.1,0.3,0.1c0.1,0.1,0.1,0.2,0.2,0.3c0,0.1,0.1,0.2,0.1,0.4v0c0,0.2,0,0.3-0.1,0.4c0,0.1-0.1,0.2-0.2,0.3
						c-0.1,0.1-0.2,0.1-0.3,0.1c-0.1,0-0.2,0-0.3,0H84v1c0,0,0,0.1-0.1,0.1c0,0-0.1,0-0.1,0c0,0-0.1,0-0.1,0c0,0-0.1,0-0.1-0.1V19.3
						z M84,19.5v1.1h0.5c0.2,0,0.3,0,0.4-0.1c0.1-0.1,0.1-0.2,0.1-0.4v0c0-0.2,0-0.3-0.1-0.4c-0.1-0.1-0.2-0.1-0.4-0.1H84z"/>
					<path class="st0" d="M86,20.5h0.6c0,0,0.1,0,0.1,0c0,0,0,0.1,0,0.1c0,0,0,0.1,0,0.1c0,0,0,0-0.1,0H86v1h1.2c0,0,0.1,0,0.1,0
						c0,0,0,0.1,0,0.1c0,0,0,0.1,0,0.1c0,0,0,0-0.1,0h-1.4c0,0-0.1,0-0.1,0c0,0,0,0,0-0.1v-2.6c0,0,0-0.1,0-0.1c0,0,0.1,0,0.1,0h1.4
						c0,0,0.1,0,0.1,0c0,0,0,0.1,0,0.1c0,0,0,0.1,0,0.1c0,0,0,0-0.1,0H86V20.5z"/>
				</g>
			</g>
		</g>
		<linearGradient id="SVGID_1_" gradientUnits="userSpaceOnUse" x1="19.4816" y1="11.939" x2="6.2405" y2="19.2909">
			<stop  offset="0" style="stop-color:#E52939"/>
			<stop  offset="7.488476e-02" style="stop-color:#E63239"/>
			<stop  offset="0.197" style="stop-color:#EA4A3A"/>
			<stop  offset="0.3512" style="stop-color:#F0723B"/>
			<stop  offset="0.5298" style="stop-color:#F8A93C"/>
			<stop  offset="0.6" style="stop-color:#FCC03D"/>
			<stop  offset="0.6289" style="stop-color:#E7BB3F"/>
			<stop  offset="0.7303" style="stop-color:#A1AA47"/>
			<stop  offset="0.8218" style="stop-color:#6A9C4E"/>
			<stop  offset="0.9001" style="stop-color:#429252"/>
			<stop  offset="0.962" style="stop-color:#2A8C55"/>
			<stop  offset="1" style="stop-color:#218A56"/>
		</linearGradient>
		<path class="st1" d="M25.2,11.5L25.2,11.5l-3.6-5.2l-3.5-2l-2.9-0.6l-2.7,0.2L9.3,5L7.7,6.1L5.6,8.3l-1,1.4l-0.7,1.7l-0.2,1.8
			l0.2,2.6l0.1,1.7L5,19.5l1,2.1l0,0L8.6,24l2.1,1l2.5,0.6l2.9,0l3-0.9l3-2l2.4-3.2l0-0.1l1.1-4l0-0.1L25.2,11.5z M20.1,11.9
			l-0.1-2.4l2.6,2.5L20.1,11.9z M22.7,12.4L21,14.5l-0.8-2.3L22.7,12.4z M20.1,9.1l1.2-1.7c0.3,0.8,0.9,3,1.3,4.2L20.1,9.1z M20,8.7
			l-0.1-1.5l1.2,0.1L20,8.7z M20,12.5l0.8,2.3l-2.2,1.1L20,12.5z M20.8,15.1l0,3.7l-2.3-2.5L20.8,15.1z M16.1,10.7l-2.4-0.9l2-1.2
			L16.1,10.7z M16,8.1l0.1-1.6l3,0.5L16,8.1z M16,8.6l3.4,0.7l-3,1.4L16,8.6z M13.5,10.1l2.5,0.9l-2.2,4.4L13.5,10.1z M13.7,15.7
			l-2-0.4l1.6-4.7L13.7,15.7z M13.7,9.4l0.5-1.1l1.1,0.1L13.7,9.4z M15.7,8.2l-1.2-0.1l1.3-1.3L15.7,8.2z M14.1,8l-1.9-1.4l3.4-0.1
			L14.1,8z M13.3,9.7l-2.8,0.1l3.3-1.3L13.3,9.7z M13.2,10l-1.7,4.9l-1.6-4.9L13.2,10z M11.1,14.8l-1.9-2l0.4-2.3L11.1,14.8z
			 M10.8,14.9c-1.4-0.6-3.5-1.6-4.1-1.7l0-1.3l2.2,1L10.8,14.9z M10.9,15.3l-4.3,0.5c0-1.1,0.1-2,0.1-2.3
			C7.2,13.7,9.1,14.5,10.9,15.3z M11.1,15.6l-1.5,2.1L6.9,16L11.1,15.6z M11.4,15.8l0.6,3.6l-2-1.6L11.4,15.8z M11.6,15.6l2,0.4
			l-1.4,3.2L11.6,15.6z M13.9,16.1l1.7,0.6l-3.1,2.6L13.9,16.1z M14.2,15.9l5-3.1l-3.3,3.7L14.2,15.9z M14.2,15.5l2.2-4.4l3.3,1.1
			L14.2,15.5z M16.7,10.9l3.1-1.5l0.1,2.5L16.7,10.9z M16.4,8.3l3.2-1.1L19.7,9L16.4,8.3z M16.2,6.3l1-1.2l2,1.7L16.2,6.3z
			 M15.9,6.2l-1.6-1.5L16.9,5L15.9,6.2z M15.6,6.3l-3.5,0.1l1.8-1.6L15.6,6.3z M13.8,8.2L10,9.6l1.8-2.9L13.8,8.2z M9.6,9.7L8.3,8.8
			l3-1.9L9.6,9.7z M9.5,10L9,12.1l-0.8-3L9.5,10z M8.8,12.5l-2-0.9L8,9.3L8.8,12.5z M7.6,9.4l-1.1,2.2l-1.6-0.1L7.6,9.4z M5.1,10.9
			l1.5-2.5l1.1,0.5L5.1,10.9z M6.4,11.8l0,1.2L5,11.7L6.4,11.8z M6.6,16.2l2.8,1.7l-3,1.2L6.6,16.2z M9.2,18.2L6.9,21l-0.5-1.7
			L9.2,18.2z M9.6,18.2l0.4,2.4l-2.8,0.5L9.6,18.2z M10.1,20.9l0,0.3l-1.7,0L10.1,20.9z M10,18.2l1.9,1.5l-1.5,0.7L10,18.2z
			 M11.1,20.5L10.4,21l0-0.2L11.1,20.5z M12.1,20l1.1,2.4l-2.7-1.1L12.1,20z M12.6,20.4l2.9,2.7l-1.9-0.5L12.6,20.4z M12.8,20.2
			l5.4,2l-2.1,1L12.8,20.2z M12.5,19.7l3.4-2.9l2.4,5.1L12.5,19.7z M16.1,16.7l2-0.4l0.3,5.1L16.1,16.7z M18.2,16l-1.8,0.4l3.2-3.5
			L18.2,16z M20.8,19.1l-2,2.7l-0.3-5.2L20.8,19.1z M21,19.3l1.6,0.8l-3.5,1.7L21,19.3z M21.3,19.1l2.7-1.3l-1,2.1L21.3,19.1z
			 M21.1,18.9l0-3.7l2.9,2.3L21.1,18.9z M23,12.5l2,2.8l-3.8-0.6L23,12.5z M21.7,7.8l3.1,3.7L23.1,12C22.9,11.6,22.3,9.7,21.7,7.8z
			 M21.6,6.8l1.6,2.3l-1.7-2L21.6,6.8z M21.4,6.5l-0.1,0.4l-1.8-1.4L21.4,6.5z M20.9,6.9l-1.1-0.1l-1.1-1.7L20.9,6.9z M19,6.2
			l-1.5-1.3L18,4.6L19,6.2z M17.6,4.5l-0.4,0.2l-0.9-0.4L17.6,4.5z M15.2,4l1.2,0.6l-1.9-0.2L15.2,4z M14.4,4.1l-0.5,0.2l-0.6-0.2
			L14.4,4.1z M12.5,4.2l0.8,0.2l-2.3,0.3L12.5,4.2z M13.5,4.7l-1.7,1.6L9.9,5.2L13.5,4.7z M9.4,5.3l1.9,1.1L8,7.2L9.4,5.3z M8,6.3
			l0.8-0.5L7.9,6.9L8,6.3z M10.9,6.8L8.1,8.6l-0.3-1L10.9,6.8z M7.8,8.6L6.9,8.2l0.7-0.5L7.8,8.6z M7.6,6.9L7.5,7.4L7.1,7.7L7.6,6.9
			z M6.9,7.4L6.5,8.1L6.2,8.2L6.9,7.4z M5.8,8.6L6,8.5C5.9,8.7,5.7,8.9,5.5,9L5.8,8.6z M4.8,10l1-0.9L4.7,11L4.8,10z M4.6,11.9
			l1.8,1.5l-2.2,2.1L4.6,11.9z M4.1,11.5l0.5-1.3l-0.3,1.3L4,12.6L4.1,11.5z M4,13.3l0.3-0.7L4,14.3L4,13.3z M4.2,17.4l0-0.5l0.3,1
			L4.2,17.4z M4.2,15.9l2.3-2.1c-0.1,0.7-0.1,1.9-0.1,2.2L5.2,19L4.2,15.9z M6.2,17l-0.1,2.1l-0.7,0.2L6.2,17z M6.1,19.4l0.4,1.3
			l-1.1-1.1L6.1,19.4z M5.7,20.3l0.9,0.9l-0.3,0.2L5.7,20.3z M6.5,21.6l0.3-0.2l1,1.3L6.5,21.6z M7.1,21.4l2.8,0.1l-1.3,2.1
			L7.1,21.4z M8.9,23.8l1.2-2l0.4,2.8L8.9,23.8z M10.9,24.7l-0.4-2.8l2.4,3.3L10.9,24.7z M13.1,25.1l-2.4-3.4l2.7,1.1L13.1,25.1z
			 M13.7,22.9l2.1,0.6l-2.4,1.7L13.7,22.9z M16.1,25.3l-2.4,0l2.4-1.7l1.6,1L16.1,25.3z M16.4,23.4l2-0.9l-0.5,1.9L16.4,23.4z
			 M18.7,22.3l3.4-1.6l-3.8,3.5L18.7,22.3z M19,24.4l-0.3,0c0.3-0.2,0.7-0.4,1.1-0.6L19,24.4z M22,22.2c-0.1,0.2-0.1,0.3-0.1,0.3
			c0,0-0.1,0-0.1,0.1L18.9,24l3.7-3.3L22,22.2z M22.5,21.6c0.2-0.5,0.4-1,0.6-1.4l0.7-0.3L22.5,21.6z M24.1,19.4l-0.8,0.4l0.8-1.6
			L24.1,19.4z M24.4,18.3l0-0.8l0.4-0.8L24.4,18.3z M24.3,17.3l-2.8-2.2l3.6,0.5L24.3,17.3z M23.3,12.3l1.6-0.6l0.3,3.2L23.3,12.3z"
			/>
	</g>
	<g>
		<g>
			<g>
				<rect x="31" y="3.7" class="st0" width="0.3" height="22.6"/>
			</g>
		</g>
	</g>
</g>
</svg>
